<svg width="107" height="107" viewBox="0 0 107 107" fill="none" xmlns="http://www.w3.org/2000/svg">
<g clip-path="url(#clip0_51_182)">
<path d="M90.2812 78.4109C90.2812 98.6406 73.8969 98.6406 53.5 98.6406C33.1031 98.6406 16.7188 98.6406 16.7188 78.4109C16.7188 58.1813 33.2703 25.0781 53.5 25.0781C73.7297 25.0781 90.2812 58.0141 90.2812 78.4109Z" fill="#DBB471"/>
<path opacity="0.5" d="M90.2812 78.4109C90.2812 71.5563 88.4422 63.1969 85.0984 55.1719C85.7672 60.3547 84.4297 69.55 68.5469 73.0609C45.9766 77.9094 57.6797 84.2625 48.8188 85.0984C41.2953 85.7672 21.2328 82.7578 17.2203 71.3891C16.8859 73.8969 16.5516 76.2375 16.5516 78.5781C16.7187 98.6406 33.2703 98.6406 53.5 98.6406C73.7297 98.6406 90.2812 98.6406 90.2812 78.4109Z" fill="#89664C"/>
<path d="M56.8437 91.9531H52.9984V98.6406L68.5469 107L103.656 96.1328V90.2812L90.7828 82.7578L56.8437 91.9531Z" fill="#699635"/>
<path d="M53.5 88.1078C53.5 88.1078 57.5125 94.6281 68.8813 100.312C68.8813 100.312 86.6031 99.4766 103.656 88.1078C103.656 88.1078 93.7922 83.2594 90.95 76.9062C90.95 76.9062 84.2625 86.2688 53.5 88.1078Z" fill="#83BF4F"/>
<path d="M45.9766 91.7859L49.6547 91.6187L50.1562 97.8047L35.6109 107L0.668749 99.4766L0.167187 93.9594L12.0375 85.7672L45.9766 91.7859Z" fill="#699635"/>
<path d="M48.8187 87.9406C48.8187 87.9406 45.3078 94.4609 34.775 100.647C34.775 100.647 17.5547 101.148 0 91.9531C0 91.9531 9.3625 86.6031 11.5359 80.25C11.5359 80.25 18.8922 88.6094 48.8187 87.9406Z" fill="#83BF4F"/>
<path d="M40.4594 89.7797C40.4594 89.7797 39.9578 91.1172 42.2984 91.2844L36.1125 96.4672C36.1125 96.4672 32.4344 96.1328 31.5984 98.6406C31.5984 98.6406 16.5516 96.9688 6.85469 92.6219C6.85469 92.6219 8.86094 91.1172 6.35313 90.1141C6.35313 90.1141 9.19531 88.1078 9.86406 86.2688C9.86406 86.2688 12.5391 86.6031 13.375 84.5969C13.7094 84.4297 23.7406 90.4484 40.4594 89.7797Z" stroke="#699635" stroke-miterlimit="10"/>
<path d="M14.7125 92.1203C16.4669 92.1203 17.8891 91.1472 17.8891 89.9469C17.8891 88.7465 16.4669 87.7734 14.7125 87.7734C12.9581 87.7734 11.5359 88.7465 11.5359 89.9469C11.5359 91.1472 12.9581 92.1203 14.7125 92.1203Z" fill="#699635"/>
<path d="M31.7656 87.2719C31.7656 87.2719 27.9203 92.2875 19.5609 99.1422L20.0625 103.656L14.2109 102.319L13.8766 97.4703C13.8766 97.4703 22.4031 89.6125 24.2422 85.7672C24.075 85.7672 27.0844 86.7703 31.7656 87.2719ZM70.3859 86.1016C70.3859 86.1016 71.8906 90.1141 83.2594 97.4703V102.319L89.7797 100.312V95.2969C89.7797 95.2969 81.9219 89.7797 77.2406 84.2625L70.3859 86.1016Z" fill="#F9F3D9"/>
<path d="M60.8563 80.7516L57.1781 80.5844L56.8438 87.4391L71.7234 96.9688L106.666 87.4391L106.833 81.4203L94.6281 72.8938L60.8563 80.7516Z" fill="#699635"/>
<path d="M57.8469 76.5719C57.8469 76.5719 61.525 83.5938 72.3922 89.9469C72.3922 89.9469 89.7797 89.9469 107 79.2469C107 79.2469 97.4703 73.7297 95.1297 66.875C95.1297 66.875 87.9406 76.2375 57.8469 76.5719Z" fill="#83BF4F"/>
<path d="M65.3703 78.4109C65.3703 78.4109 66.2063 79.7484 63.5312 80.25L70.5531 85.7672C70.5531 85.7672 74.5656 84.7641 75.9031 87.1047C75.9031 87.1047 92.6219 84.0953 100.312 80.0828C100.312 80.0828 97.8047 78.9125 100.312 77.4078C100.312 77.4078 97.3031 74.9 96.1328 73.2281C96.1328 73.2281 93.2906 74.0641 91.7859 72.0578C91.7859 72.225 85.7672 77.575 65.3703 78.4109Z" stroke="#699635" stroke-miterlimit="10"/>
<path d="M78.2438 82.5906C77.575 83.4266 75.4016 83.7609 73.5625 83.2594C71.7234 82.7578 70.8875 81.5875 71.5563 80.7516C72.225 79.9156 74.3984 79.5813 76.2375 80.0828C78.0766 80.5844 78.9125 81.5875 78.2438 82.5906Z" fill="#699635"/>
<path d="M74.9 75.2344C74.9 75.2344 78.9125 80.5844 87.4391 87.7734L87.2719 92.7891L93.1234 91.1172L93.2906 85.7672C93.2906 85.7672 84.5969 77.4078 82.4234 73.3953C82.5906 73.3953 79.7484 74.5656 74.9 75.2344Z" fill="#F9F3D9"/>
<path d="M76.9062 3.34375C76.9062 13.5422 63.6984 30.0938 53.5 30.0938C43.3016 30.0938 30.0938 15.2141 30.0938 5.01562C30.0938 -5.18281 31.5984 5.01562 41.7969 5.01562C43.3016 5.01562 50.3234 0 53.5 0C55.6734 0 61.8594 5.01562 65.2031 5.01562C74.0641 5.01562 76.9062 -4.34687 76.9062 3.34375Z" fill="#DBB471"/>
<path d="M50.4906 22.2359C49.4875 22.9047 44.6391 22.4031 43.1344 23.5734C41.1281 25.0781 43.9703 28.5891 41.9641 30.7625C37.9516 34.775 34.775 39.2891 35.7781 41.7969C37.45 46.1438 40.6266 33.7719 43.4688 38.4531C46.3109 43.1344 45.8094 35.2766 50.1562 39.2891C54.5031 43.3016 50.825 32.1 55.0047 36.9484C59.1844 41.7969 59.3516 47.3141 62.3609 47.3141C65.8719 47.3141 58.6828 34.1063 63.3641 37.2828C68.0453 40.4594 73.2281 39.2891 68.5469 34.4406C67.0422 32.9359 65.0359 30.2609 62.6953 27.9203C61.8594 27.0844 62.5281 22.7375 61.6922 22.0688C60.6891 21.2328 58.1812 23.9078 57.1781 23.4063C55.1719 22.4031 55.8406 24.2422 52.8312 24.7438C50.825 25.4125 52.4969 20.8984 50.4906 22.2359Z" fill="#89664C"/>
<path d="M31.2641 32.1C37.7844 25.9141 49.6547 29.425 56.6766 32.4344C63.5313 35.4437 67.7109 25.9141 63.3641 21.0656C60.8563 18.2234 56.8438 21.5672 55.3391 23.5734C53.6672 25.5797 52.3297 27.7531 50.4906 29.7594C47.8156 32.7687 41.2953 30.2609 43.3016 26.0812C45.475 21.7344 54.6703 26.75 57.6797 27.5859C63.5313 29.2578 69.7172 29.9266 75.5688 27.7531C77.575 27.0844 76.7391 23.7406 74.7328 24.5766C68.2125 26.9172 61.6922 25.4125 55.5063 23.4062C52.3297 22.4031 47.3141 19.7281 43.9703 21.2328C34.4406 25.7469 43.3016 38.6203 51.3266 33.6047C53.1656 32.4344 54.3359 30.5953 55.6734 28.9234C56.5094 27.9203 60.6891 21.5672 61.6922 24.7437C62.1938 26.4156 61.6922 29.425 59.8531 29.9266C58.6828 30.4281 56.3422 28.7562 55.1719 28.4219C52.9984 27.5859 50.825 26.9172 48.4844 26.4156C42.2984 25.0781 33.9391 25.4125 29.0906 29.9266C27.4188 31.2641 29.7594 33.6047 31.2641 32.1Z" fill="#E8E8E8"/>
<path d="M74.9 0.835937C73.2281 2.17344 70.2188 5.01562 65.2031 5.01562C61.8594 5.01562 55.6734 0 53.5 0C50.3234 0 43.3016 5.01562 41.7969 5.01562C36.2797 5.01562 33.2703 2.17344 31.7656 1.00312C31.7656 1.00312 33.6047 8.52656 39.2891 12.3719C43.4688 15.0469 42.9672 11.8703 45.1406 8.86094C47.3141 5.85156 48.8188 4.34687 52.6641 11.8703C54.6703 16.05 58.5156 0.501562 61.525 5.51719C67.0422 14.7125 69.0484 9.69687 74.9 0.835937Z" fill="#89664C"/>
<path d="M87.6063 87.6063L87.4391 92.6219L93.2906 90.95L93.4578 85.6C93.4578 85.7672 89.9469 87.1047 87.6063 87.6063ZM83.2594 97.6375V102.486L89.7797 100.48V95.4641C89.6125 95.2969 87.9406 96.3 83.2594 97.6375ZM19.5609 98.975L20.0625 103.656L14.2109 102.319L13.8766 97.4703C13.7094 97.4703 16.05 98.3063 19.5609 98.975Z" fill="#DBB471"/>
</g>
<defs>
<clipPath id="clip0_51_182">
<rect width="107" height="107" fill="white"/>
</clipPath>
</defs>
</svg>
